<?xml version="1.0" encoding="utf-8"?>
<!-- Generator: Adobe Illustrator 26.3.1, SVG Export Plug-In . SVG Version: 6.00 Build 0)  -->
<svg version="1.1" id="Icon" xmlns="http://www.w3.org/2000/svg" xmlns:xlink="http://www.w3.org/1999/xlink" x="0px" y="0px"
	 viewBox="0 0 1944.56189 1329.440308" style="enable-background:new 0 0 1944.56189 1329.440308;" xml:space="preserve">
<style type="text/css">
	.st0{fill:#FFFFFF;}
</style>
<path class="st0" d="M1553.890991,653.060852c2.122559,118.185364-27.985352,234.736694-87.139771,337.263367
	s-145.131226,187.199341-248.796265,245.017822c-103.666504,57.818481-221.146729,86.626587-339.954346,83.351318
	c-118.809082-3.269531-234.507019-38.494751-334.797729-101.927612c75.401978-29.743164,157.748657-65.663086,244.541077-107.157104
	c113.162476,27.223511,232.493469,10.795776,333.966125-45.974487s177.550659-149.666992,212.921143-259.985962
	C1413.804321,752.583984,1487.438599,701.944336,1553.890991,653.060852z M1722.079468,1039.236816
	c-10.540039-10.502075-23.987671-17.65625-38.627319-20.557983c-14.639526-2.900391-29.817017-1.41748-43.613403,4.260986
	c-13.796509,5.678467-25.58667,15.298096-33.873291,27.642334c-8.301025,12.342651-12.720459,26.855713-12.720459,41.701782
	c0,19.895142,7.9375,38.974487,22.068359,53.048462c14.145264,14.072754,33.320801,21.987183,53.324707,22.003174
	c14.930542,0.011597,29.526489-4.378906,41.941895-12.618896c12.415161-8.23999,22.097412-19.956055,27.825195-33.669678
	c5.713379-13.712158,7.225464-28.805298,4.317871-43.367676
	C1739.815308,1063.116577,1732.633911,1049.738892,1722.079468,1039.236816z M1555.41748,107.881653
	c4.18689,4.159241,9.158813,7.454956,14.610474,9.702515c5.466309,2.246155,11.324951,3.398987,17.241943,3.391724
	c8.897217,0,17.605347-2.625549,25.005127-7.545166c7.399658-4.918152,13.171265-11.909424,16.572998-20.089844
	c3.416504-8.178955,4.303345-17.179382,2.573242-25.862793c-1.744629-8.683472-6.033203-16.6604-12.328125-22.920349
	c-6.2948-6.26001-14.305176-10.523987-23.04248-12.251038c-8.737061-1.72711-17.779663-0.84033-26.008057,2.546997
	c-8.228516,3.388794-15.250244,9.125427-20.193115,16.487366c-4.957275,7.362-7.588623,16.016357-7.588623,24.869873
	c-0.014648,5.880554,1.148315,11.705872,3.401611,17.140137C1547.930542,98.785278,1551.245117,103.723816,1555.41748,107.881653z
	 M128.201279,844.672485c4.535828-10.913574,5.711914-22.920349,3.382996-34.498291
	c-2.330444-11.579407-8.061279-22.210876-16.469971-30.546936c-8.408691-8.337402-19.115784-14.005737-30.764954-16.288208
	c-11.650635-2.280945-23.718506-1.072876-34.677124,3.470215c-10.960083,4.544495-20.316648,12.219055-26.88629,22.055359
	c-6.571106,9.836304-10.058716,21.389526-10.0224,33.198608c0.048035,15.792419,6.390869,30.921997,17.635864,42.07251
	c11.246458,11.149048,26.477781,17.410522,42.357483,17.410522c11.873047,0,23.480042-3.503601,33.349792-10.067383
	C115.976425,864.913574,123.665451,855.584656,128.201279,844.672485z M1274.749878,429.48053
	c-30.680664,15.715332-61.920166,32.093384-93.65332,49.030273c-5.361694-7.548889-11.874634-14.304871-19.372559-19.991028
	c-16.94812-12.852844-37.85498-19.461792-59.156006-18.698486c-21.299316,0.763184-41.674072,8.850586-57.648193,22.882507
	c-15.975708,14.031982-26.560669,33.141907-29.953857,54.069153c-3.391724,20.92572,0.619385,42.376343,11.349609,60.691101
	c5.930176,10.477417,13.946289,19.643555,23.560181,26.934265c9.615356,7.29071,20.623291,12.553406,32.352417,15.466797
	c20.598633,5.444458,42.459229,3.615601,61.852783-5.17688c19.393433-8.79248,35.120483-24.002014,44.498901-43.037842
	c9.378296-19.034424,11.828003-40.716125,6.931641-61.345276c-1.549194-6.52533-3.807129-12.815369-6.70105-18.776001
	c31.671509-17.000671,62.78125-33.457458,93.193848-49.266968C1279.445679,437.415222,1277.003296,433.11499,1274.749878,429.48053z
	 M1097.760376,899.840698C588.517334,1192.05127,131.044907,1352.265503,83.78093,1270.796997
	c-20.829834-35.859009,42.513-110.547241,163.291931-207.466553c-83.868835,73.536621-177.239563,165.974121-158.357788,199.895264
	c18.494995,31.849121,161.912537-12.483398,372.307617-108.004272c-72.022949-63.2052-129.374451-141.417847-167.845947-229.247559
	c-43.010269-98.191406-61.121475-205.383301-52.744766-312.163757c8.376709-106.778931,42.986954-209.879883,100.789383-300.248535
	c57.80249-90.368713,137.030762-165.241455,230.725708-218.042908c93.696411-52.801453,198.994019-81.916382,306.648132-84.787598
	c107.65271-2.872253,214.369263,20.587036,310.776855,68.316223c96.411987,47.729187,179.553955,118.269714,242.153931,205.426941
	c55.667969,77.522644,93.546997,166.087769,111.178345,259.43811c238.705811-161.632629,385.1698-288.299255,364.078125-324.624329
	c-21.065186-43.613525-187.043823,10.599548-424.882812,123.208252c-2.19519-3.997986-4.506714-7.936279-6.818237-11.752441
	c248.248169-115.394104,423.661621-168.335144,452.592041-118.483398
	C1975.182983,293.733398,1606.997681,607.630127,1097.760376,899.840698z M1356.545776,665.184082
	c0.084717-69.567261-15.758423-138.432373-46.585205-201.280884c-36.868042-75.165039-93.719727-138.852417-164.401123-184.155212
	c-70.683105-45.301392-152.490356-70.485291-236.545227-72.820007c-84.056335-2.333374-167.148804,18.272583-240.262573,59.580383
	c-73.113708,41.309265-133.455872,101.743103-174.47876,174.744873s-61.159302,155.784607-58.22406,239.36261
	c2.935181,83.578064,28.829956,164.760315,74.874207,234.738159c38.677307,58.780396,90.3349,107.763794,150.821045,143.353027
	c121.965759-61.50061,256.352539-133.897888,395.999451-214.110168
	C1163.675903,783.750061,1264.19104,723.273193,1356.545776,665.184082z"/>
</svg>
