<svg width="328" height="350" viewBox="0 0 328 350" fill="none" xmlns="http://www.w3.org/2000/svg">
<path fill-rule="evenodd" clip-rule="evenodd" d="M70.1579 56.1123H199.662L208.828 36.7627H70.1579C55.2172 36.7627 44.1551 42.3281 32.2964 52.205L32.178 52.3035L16.0747 68.4921L16.0435 68.5253C6.5997 78.5599 0.463867 91.8404 0.463867 106.815V294.419C0.463867 324.583 24.7895 349.065 54.8338 349.065H222.121C236.229 349.065 248.646 344.295 258.871 334.692C260.137 333.503 261.307 332.419 262.42 331.388L262.444 331.365C267.186 326.971 270.849 323.577 275.798 317.729C286.242 305.389 291.815 294.364 291.815 279.013V125.261L272.466 134.427V276.817C272.466 296.158 256.787 311.837 237.445 311.837H70.1579C50.8167 311.837 35.1376 296.158 35.1376 276.817V91.1327C35.1376 71.7915 50.8167 56.1123 70.1579 56.1123ZM260.18 328.978L260.182 328.976L260.184 328.975L260.18 328.978Z" fill="#EBEADC"/>
<path fill-rule="evenodd" clip-rule="evenodd" d="M327.176 55.0909C327.176 25.1823 302.931 0.936523 273.022 0.936523C256.425 0.936523 241.572 8.40244 231.639 20.159L220.241 35.2671C214.18 44.0128 210.629 54.6293 210.629 66.0751C210.629 95.9838 234.875 120.23 264.784 120.23C281.626 120.23 296.673 112.541 306.606 100.481L317.45 86.0646C323.58 77.2875 327.176 66.6091 327.176 55.0909ZM274.395 96.8879C298.237 96.8879 317.565 77.56 317.565 53.7179C317.565 29.8757 298.237 10.5478 274.395 10.5478C250.553 10.5478 231.225 29.8757 231.225 53.7179C231.225 77.56 250.553 96.8879 274.395 96.8879Z" fill="#EBEADC"/>
<path d="M256.481 67.6993L246.778 68.9768V62.1388L256.058 60.9172C257.555 60.7201 258.741 60.2362 259.617 59.4656C260.521 58.6913 261.17 57.7083 261.566 56.5166C261.99 55.3212 262.202 54.0254 262.202 52.6293C262.202 51.2048 261.99 49.9648 261.566 48.9094C261.142 47.8255 260.464 47.0173 259.532 46.4847C258.628 45.9484 257.428 45.7788 255.931 45.9759L246.778 47.1808V40.3429L256.354 39.0822C259.151 38.714 261.594 39.0192 263.685 39.9976C265.775 40.9475 267.385 42.4308 268.515 44.4474C269.673 46.4318 270.252 48.8058 270.252 51.5694C270.252 54.3046 269.687 56.8293 268.557 59.1434C267.427 61.4575 265.831 63.3771 263.769 64.9022C261.707 66.3988 259.278 67.3312 256.481 67.6993ZM251.736 68.3241L244.109 69.3282V40.6943L251.736 39.6902V68.3241Z" fill="#EBEADC"/>
<path d="M280.577 64.5271L272.95 65.5312V36.8974L283.543 35.5028L286.339 43.4684L288.839 53.0543L291.339 42.8101L294.135 34.1082L304.728 32.7136V61.3475L297.101 62.3516V54.9153L298.33 40.6931L294.771 52.2733L292.949 57.7698L284.729 58.852L282.907 53.8352L279.348 43.1922L280.577 57.0909V64.5271Z" fill="#EBEADC"/>
<path fill-rule="evenodd" clip-rule="evenodd" d="M109.289 127.375C109.299 122.827 109.313 116.864 109.304 112.322L174.778 112.304V131.461C173.547 132.954 171.894 134.331 170.066 134.91C168.233 135.49 165.268 135.588 160.921 131.784C155.549 127.083 150.223 122.889 144.899 121.082C142.099 120.132 139.132 119.775 136.082 120.434C133.038 121.092 130.314 122.674 127.854 124.956C124.106 128.432 119.561 128.536 110.608 128.271L110.579 128.27C110.156 128.257 109.725 128.244 109.287 128.232L109.289 127.427L109.289 127.377L109.289 127.375ZM184.647 107.368V133.085C184.647 148.071 180.238 162.703 172.716 173.715C166.167 183.304 156.942 190.533 145.945 192.222V205.633C147.78 204.518 149.819 203.812 151.804 203.396C157.3 202.247 163.93 203.014 168.816 205.691C176.791 210.061 181.456 216.554 186.181 225.58C190.488 224.725 195.011 223.275 199.588 221.797L200.054 221.646C205.073 220.024 210.53 218.261 215 218.001C217.375 217.863 220.122 218.093 222.573 219.511C225.222 221.045 226.816 223.546 227.511 226.503C228.525 230.812 226.559 235.712 221.399 239.963C222.133 240.091 222.843 240.244 223.525 240.427C226.756 241.296 230.966 243.328 232.047 248.088C232.55 250.301 232.323 252.505 231.344 254.505C230.41 256.414 228.945 257.829 227.451 258.875C226.036 259.865 224.385 260.67 222.624 261.334C222.727 261.394 222.829 261.455 222.93 261.517C225.921 263.344 228.676 266.285 228.985 270.641C229.169 273.223 228.671 276.034 226.561 278.298C224.624 280.376 221.985 281.255 219.625 281.705C215.152 282.558 208.507 282.376 200.291 282.151L199.555 282.131C192.352 281.935 183.476 281.693 172.684 281.858C175.056 291.741 177.829 303.699 180.476 315.794L170.835 317.904C167.647 303.339 164.274 288.966 161.651 278.231C161.297 276.783 161.616 275.253 162.52 274.068C163.423 272.882 164.814 272.169 166.304 272.126C180.186 271.73 191.272 272.032 199.805 272.265L199.824 272.266C208.978 272.515 214.5 272.635 217.776 272.01C218.492 271.874 218.918 271.731 219.152 271.633C219.152 271.554 219.149 271.458 219.141 271.341L219.14 271.332C219.136 271.24 219.115 270.751 217.784 269.938C216.328 269.049 213.985 268.236 210.768 267.6C204.388 266.337 196.187 266.056 188.903 265.981C186.255 265.954 184.1 263.841 184.022 261.193C183.943 258.546 185.968 256.308 188.61 256.124C189.736 256.045 190.989 255.968 192.31 255.886L192.312 255.886L192.328 255.885C199.167 255.464 207.926 254.912 214.696 253.383C218.144 252.605 220.506 251.69 221.791 250.79C222 250.644 222.15 250.519 222.255 250.42C222.006 250.294 221.601 250.13 220.962 249.958C218.968 249.422 215.972 249.21 212.189 249.341C204.712 249.599 195.685 251.124 188.924 252.398C186.258 252.901 183.687 251.157 183.167 248.494C182.647 245.832 184.374 243.249 187.034 242.712C202.634 239.561 210.689 235.756 214.636 232.733C217.66 230.417 217.875 228.946 217.884 228.681C217.783 228.285 217.678 228.118 217.65 228.077C217.632 228.05 217.637 228.058 217.629 228.053C217.548 228.007 217.027 227.769 215.572 227.854C212.519 228.031 208.262 229.367 202.621 231.189L202.4 231.26C196.866 233.048 190.323 235.161 184.003 235.92C181.931 236.168 179.926 235.087 178.997 233.218C173.796 222.765 170.145 217.673 164.073 214.346C161.473 212.921 157.28 212.334 153.825 213.057C152.144 213.408 151.038 213.989 150.437 214.533C149.956 214.967 149.734 215.404 149.734 216.116C149.734 216.584 150.016 217.59 151.96 219.253C153.849 220.87 156.4 222.342 159.202 223.937L159.351 224.022C161.025 224.975 162.886 226.035 164.365 227.103C165.139 227.661 165.984 228.344 166.71 229.157C167.413 229.944 168.282 231.158 168.607 232.786C169.383 236.666 168.099 240.042 165.924 242.601C163.874 245.012 161.021 246.751 158.184 248.01C152.483 250.541 145.317 251.803 139.607 251.937C139.566 251.938 139.524 251.939 139.483 251.939C134.972 251.931 128.202 251.108 122.444 248.767C116.955 246.536 110.252 241.916 110.742 233.468C111.008 228.87 113.628 225.796 116.43 223.792C118.965 221.979 122.094 220.722 124.516 219.75L124.763 219.65C127.366 218.604 129.166 217.852 130.384 216.997C130.933 216.612 131.138 216.353 131.2 216.255L131.207 216.244C131.227 216.214 131.233 216.204 131.233 216.116C131.233 215.416 130.707 214.004 127.608 212.785C124.667 211.628 121.004 211.414 118.479 212.08C111.164 214.01 106.458 217.654 103.697 221.908C100.909 226.203 99.8482 231.514 100.552 237.164C101.97 248.546 110.538 260.769 124.907 266.352C126.526 266.981 127.695 268.414 127.985 270.126L135.778 316.023L126.048 317.675L118.709 274.449C102.624 267.171 92.5478 252.749 90.7584 238.384C89.8108 230.777 91.1844 223.057 95.4183 216.535C99.6784 209.972 106.581 205.011 115.963 202.537C120.692 201.29 126.503 201.744 131.222 203.601C132.834 204.235 134.542 205.139 136.075 206.342V192.123C126.56 190.295 117.993 183.347 111.714 174.242C104.266 163.443 99.4091 148.818 99.4091 133.085C99.4091 131.868 99.4137 129.833 99.4192 127.413L99.4193 127.405C99.4343 120.771 99.4557 111.28 99.4095 107.448C99.3936 106.129 99.9063 104.859 100.833 103.92C101.76 102.982 103.024 102.454 104.343 102.453L179.711 102.434C181.02 102.433 182.275 102.953 183.201 103.878C184.127 104.804 184.647 106.059 184.647 107.368ZM136.053 225.076L136.076 225.06V228.833L128.394 228.828L128.444 228.808L128.704 228.703C130.951 227.801 133.799 226.658 136.053 225.076ZM126.16 239.624C125.406 239.318 124.746 239.007 124.17 238.694L154.725 238.739C154.549 238.823 154.367 238.906 154.18 238.99C149.939 240.872 144.143 241.95 139.437 242.069C135.799 242.055 130.4 241.348 126.16 239.624ZM145.945 227.089C146.697 227.708 147.493 228.296 148.305 228.854L145.945 228.849V227.089ZM219.132 271.915L219.132 271.92C219.132 271.92 219.134 271.913 219.137 271.896C219.135 271.905 219.133 271.911 219.132 271.915ZM222.611 250.663C222.608 250.665 222.587 250.647 222.559 250.608C222.601 250.642 222.615 250.662 222.611 250.663Z" fill="#EBEADC"/>
</svg>
